<svg width="130" height="145" viewBox="0 0 430 145" fill="none" xmlns="http://www.w3.org/2000/svg">
<path fill-rule="evenodd" clip-rule="evenodd" d="M133.963 91.5199L133.255 95.5656C157.938 95.8601 182.613 94.4698 207.114 91.4041C206.488 99.7359 205.265 108.01 203.456 116.158C187.027 118.401 147.276 120.395 100.043 118.213C101.245 104.646 103.615 91.215 107.125 78.0746C125.041 71.5233 141.328 66.2635 159.692 60.8853C175.012 56.3907 186.035 49.4629 188.325 43.6816C189.561 40.0444 190.485 36.3041 191.087 32.5029C191.724 28.9847 190.05 25.4516 186.956 23.7816C184.414 22.8652 181.743 22.3761 179.048 22.3332C161.298 22.5215 142.673 24.4719 124.994 25.9178L119.659 6.20366C135.933 3.45264 152.337 1.57929 168.804 0.591387C179.332 0.591387 193.99 -1.32041 204.116 1.73074C210.891 3.77288 217.831 9.56862 217.524 18.5145C216.876 27.0754 215.797 35.5965 214.29 44.0437C212.236 58.0128 208.46 66.01 195.69 71.3857C183.911 76.3463 150.463 86.4773 145.27 88.0415C144.821 88.1888 133.963 91.5199 133.963 91.5199ZM98.155 4.19049C109.509 7.63992 111.68 12.038 111.185 20.9887C110.54 34.4934 108.208 47.8582 104.245 60.7574C104.08 61.2619 102.262 66.6569 102.239 66.6618C78.142 76.4801 53.0054 83.3832 27.3409 87.2305C27.5962 92.0438 31.3884 95.8695 36.0982 96.0653C56.6091 96.3339 77.1193 95.4814 97.5412 93.5114C95.5112 102.983 94.9211 109.175 92.7967 117.805C61.0484 120.757 36.287 120.981 26.4675 120.885C16.6479 120.788 6.07302 118.111 2.81557 103.329C-3.43968 73.5896 1.98941 46.0689 6.89918 29.6787C9.23483 21.968 12.212 14.4761 15.7982 7.28508C35.3429 3.4977 86.8011 0.738634 98.155 4.18807V4.19049ZM82.8119 42.8754C83.4728 40.1549 84.0394 37.3862 84.4642 34.6126C85.2133 31.14 83.625 27.5795 80.5695 25.8816C78.0353 24.9661 75.3728 24.477 72.6855 24.4333C60.2849 24.6115 47.9042 25.5069 35.6025 27.1151C29.8064 39.2161 26.4128 52.3717 25.6177 65.8217C39.1161 63.8575 52.4399 60.7959 65.4624 56.6659C71.1984 54.2182 78.7991 49.8467 82.8119 42.873V42.8754ZM351.292 91.5223L350.584 95.568C362.528 95.6428 374.047 95.3846 384.551 94.9404C386.321 86.9682 388.052 78.7609 389.744 70.3188C400.083 69.9036 409.123 69.3098 416.441 68.6629C414.788 77.0889 413.073 85.2961 411.295 93.2845C418.896 92.6569 425.104 91.9882 429.471 91.3992C428.845 99.7311 427.622 108.005 425.812 116.154C421.138 116.788 414.222 117.464 405.606 118.056C403.482 126.907 401.405 135.354 399.422 143.317C391.679 143.928 382.71 144.456 372.678 144.765C374.66 136.761 376.761 128.262 378.909 119.34C360.639 119.902 339.277 119.21 317.372 118.198C318.686 104.648 321.054 91.2259 324.453 78.0601L372.607 3.63771C382.686 2.96906 393.119 2.57801 401.971 2.60456L352.094 87.1508L351.292 91.5223ZM345.697 4.69257C349.592 4.66911 353.116 7.05019 354.622 10.723C356.129 14.3959 355.32 18.6352 352.574 21.4598C349.828 24.2844 345.688 25.1364 342.087 23.6177C338.487 22.099 336.138 18.5095 336.138 14.5267C336.127 9.11365 340.404 4.71386 345.697 4.69257ZM341.756 11.1811C341.647 12.2105 341.592 13.2451 341.59 14.2805C341.592 15.3063 341.647 16.3312 341.756 17.351C342.001 18.1661 342.797 18.6716 343.62 18.5362C343.62 18.1138 343.597 17.7106 343.597 17.3292C343.573 16.8199 343.549 16.3637 343.549 15.9413C344.163 15.9413 344.871 15.9147 345.603 15.8568L345.697 15.9316C345.816 16.0233 345.934 16.1223 346.052 16.2189C346.358 16.5037 346.665 16.791 346.949 17.0734C347.303 17.4113 347.751 17.8169 348.223 18.2803H348.247H348.223C348.506 18.5362 348.79 18.8065 349.097 19.0938C349.738 18.5404 349.889 17.5908 349.451 16.8585C349.073 16.4458 348.813 16.1827 348.341 15.7337L347.775 15.6202C348.548 15.5658 349.25 15.1371 349.663 14.4664C349.762 13.9228 349.809 13.3706 349.805 12.8177C349.81 12.2608 349.762 11.7046 349.663 11.157L349.639 11.0628C349.354 10.4611 348.759 10.0768 348.105 10.0707H347.987C347.326 10.0128 346.547 9.98139 345.697 9.98139C344.848 9.98139 344.092 10.0128 343.431 10.0707H343.313C342.608 10.0419 341.97 10.4982 341.756 11.1859V11.1811ZM347.704 13.7664C347.83 13.1388 347.83 12.4917 347.704 11.8642C347.533 11.536 347.215 11.3143 346.854 11.2704C346.471 11.2096 346.085 11.1805 345.697 11.1835C345.318 11.1814 344.939 11.2104 344.564 11.2704C344.138 11.3134 343.776 11.611 343.644 12.0284C343.647 12.0889 343.639 12.1496 343.62 12.207C343.542 12.7408 343.503 13.2797 343.502 13.8195C343.502 13.9691 343.479 14.1188 343.479 14.2733C343.479 14.4278 343.502 14.575 343.502 14.7223C344.053 14.7341 344.605 14.7171 345.155 14.6716C345.697 14.6281 346.217 14.5654 346.665 14.4857C347.114 14.4556 347.511 14.1794 347.704 13.7639V13.7664ZM315.082 4.19049C326.436 7.63992 328.608 12.038 328.112 20.9887C327.467 34.4934 325.135 47.8582 321.172 60.7574C321.007 61.2619 319.189 66.6569 319.166 66.6618C295.069 76.4801 269.933 83.3832 244.268 87.2305C244.523 92.0438 248.316 95.8695 253.025 96.0653C273.536 96.3339 294.047 95.4814 314.468 93.5114C312.438 102.983 311.848 109.175 309.724 117.805C277.976 120.757 253.214 120.981 243.395 120.885C233.575 120.788 223 118.111 219.743 103.329C213.488 73.5896 218.917 46.0689 223.826 29.6787C226.162 21.968 229.139 14.4761 232.725 7.28508C252.27 3.4977 303.728 0.738634 315.082 4.18807V4.19049ZM299.739 42.8754C300.4 40.1549 300.967 37.3862 301.391 34.6126C302.141 31.14 300.552 27.5795 297.497 25.8816C294.963 24.9661 292.3 24.477 289.613 24.4333C277.212 24.6102 264.831 25.5055 252.53 27.1151C246.734 39.2161 243.34 52.3717 242.545 65.8217C256.043 63.8575 269.367 60.7959 282.39 56.6659C288.126 54.2182 295.726 49.8467 299.739 42.873V42.8754Z" fill="#5802A3"/>
</svg>
